<?xml version="1.0" encoding="UTF-8" standalone="no"?><svg xmlns="http://www.w3.org/2000/svg" xmlns:xlink="http://www.w3.org/1999/xlink" contentScriptType="application/ecmascript" contentStyleType="text/css" height="443.8px" preserveAspectRatio="none" style="width:1250px;height:443px;" version="1.1" viewBox="0 0 1250 443" width="1250.9px" zoomAndPan="magnify"><defs><filter height="300%" id="f1mw3fp5ayjhot" width="300%" x="-1" y="-1"><feGaussianBlur result="blurOut" stdDeviation="1.4"/><feColorMatrix in="blurOut" result="blurOut2" type="matrix" values="0 0 0 0 0 0 0 0 0 0 0 0 0 0 0 0 0 0 .4 0"/><feOffset dx="2.8" dy="2.8" in="blurOut2" result="blurOut3"/><feBlend in="SourceGraphic" in2="blurOut3" mode="normal"/></filter></defs><g><!--MD5=[a60570e4b426f702ccbb0d459e3b9417]
cluster models--><polygon fill="#FFFFFF" filter="url(#f1mw3fp5ayjhot)" points="931.7,55.3,971.6,55.3,976.5,71.8266,1239,71.8266,1239,287.7,931.7,287.7,931.7,55.3" style="stroke:#000000;stroke-width:1.0499999999999998;"/><line style="stroke:#000000;stroke-width:1.0499999999999998;" x1="931.7" x2="976.5" y1="71.8266" y2="71.8266"/><text fill="#000000" font-family="sans-serif" font-size="9.8" font-weight="bold" lengthAdjust="spacing" textLength="35.7" x="934.5" y="66.8732">models</text><!--MD5=[e2a75efa8a0f57c2afae8bf75386f79c]
cluster views--><polygon fill="#FFFFFF" filter="url(#f1mw3fp5ayjhot)" points="428.4,130.9,461.3,130.9,466.2,147.4266,491.4,147.4266,491.4,200.9,428.4,200.9,428.4,130.9" style="stroke:#000000;stroke-width:1.0499999999999998;"/><line style="stroke:#000000;stroke-width:1.0499999999999998;" x1="428.4" x2="466.2" y1="147.4266" y2="147.4266"/><text fill="#000000" font-family="sans-serif" font-size="9.8" font-weight="bold" lengthAdjust="spacing" textLength="28.7" x="431.2" y="142.4732">views</text><!--MD5=[f4e70ef68289585296b9045165e58692]
cluster controllers--><polygon fill="#FFFFFF" filter="url(#f1mw3fp5ayjhot)" points="523.6,130.9,581.7,130.9,586.6,147.4266,914.9,147.4266,914.9,287.7,523.6,287.7,523.6,130.9" style="stroke:#000000;stroke-width:1.0499999999999998;"/><line style="stroke:#000000;stroke-width:1.0499999999999998;" x1="523.6" x2="586.6" y1="147.4266" y2="147.4266"/><text fill="#000000" font-family="sans-serif" font-size="9.8" font-weight="bold" lengthAdjust="spacing" textLength="53.9" x="526.4" y="142.4732">controllers</text><!--MD5=[3d2289c64ab922d4a1148c2b2950c1a6]
cluster views.console--><polygon fill="#FFFFFF" filter="url(#f1mw3fp5ayjhot)" points="11.2,217.7,86.1,217.7,91,234.2266,396.2,234.2266,396.2,438.9,11.2,438.9,11.2,217.7" style="stroke:#000000;stroke-width:1.0499999999999998;"/><line style="stroke:#000000;stroke-width:1.0499999999999998;" x1="11.2" x2="91" y1="234.2266" y2="234.2266"/><text fill="#000000" font-family="sans-serif" font-size="9.8" font-weight="bold" lengthAdjust="spacing" textLength="70.7" x="14" y="229.2732">views.console</text><!--MD5=[5c7f87173935b24fa84626a0ac4e4222]
cluster views.graphic--><polygon fill="#FFFFFF" filter="url(#f1mw3fp5ayjhot)" points="413,217.7,485.8,217.7,490.7,234.2266,506.8,234.2266,506.8,287.7,413,287.7,413,217.7" style="stroke:#000000;stroke-width:1.0499999999999998;"/><line style="stroke:#000000;stroke-width:1.0499999999999998;" x1="413" x2="490.7" y1="234.2266" y2="234.2266"/><text fill="#000000" font-family="sans-serif" font-size="9.8" font-weight="bold" lengthAdjust="spacing" textLength="68.6" x="415.8" y="229.2732">views.graphic</text><!--MD5=[37e617bd1aa65de636adcd07c62c0e60]
class models.Logic--><rect fill="#FEFECE" filter="url(#f1mw3fp5ayjhot)" height="33.6" id="models.Logic" style="stroke:#A80036;stroke-width:1.0499999999999998;" width="43.4" x="942.9" y="80.5"/><ellipse cx="953.4" cy="91.7" fill="#ADD1B2" rx="7.7" ry="7.7" style="stroke:#A80036;stroke-width:0.7;"/><path d="M954.8,89.25 Q954.9422,88.9 955.1062,88.725 Q955.2703,88.55 955.4563,88.55 Q955.7844,88.55 955.9922,88.7469 Q956.2,88.9438 956.2,89.4031 L956.2,90.4969 Q956.2,90.9563 956.0031,91.1531 Q955.8063,91.35 955.5,91.35 Q955.2266,91.35 955.0516,91.2297 Q954.8766,91.1094 954.8,90.7922 Q954.7672,90.5734 954.6469,90.4531 Q954.4281,90.2234 954.0344,90.0922 Q953.6406,89.95 953.2469,89.95 Q952.7547,89.95 952.3391,90.1469 Q951.9344,90.3438 951.6172,90.7813 Q951.3,91.2188 951.3,91.8203 L951.3,92.4656 Q951.3,93.1875 951.8906,93.6687 Q952.4812,94.15 953.5312,94.15 Q954.1547,94.15 954.5922,94.0078 Q954.8437,93.9312 955.1281,93.6797 Q955.3141,93.5375 955.4125,93.4937 Q955.5109,93.45 955.6312,93.45 Q955.8609,93.45 956.025,93.6359 Q956.2,93.8109 956.2,94.0625 Q956.2,94.3031 955.9594,94.5875 Q955.6094,95.0031 955.0516,95.2328 Q954.3187,95.55 953.4219,95.55 Q952.3719,95.55 951.5297,95.1344 Q950.8516,94.8062 950.3703,94.0953 Q949.9,93.3844 949.9,92.5422 L949.9,91.7766 Q949.9,90.9016 950.3156,90.1359 Q950.7422,89.3703 951.475,88.9656 Q952.2187,88.55 953.05,88.55 Q953.5531,88.55 953.9906,88.725 Q954.4281,88.9 954.8,89.25 Z " fill="#000000"/><text fill="#000000" font-family="sans-serif" font-size="8.4" lengthAdjust="spacing" textLength="21" x="963.2" y="95.1371">Logic</text><line style="stroke:#A80036;stroke-width:1.0499999999999998;" x1="943.6" x2="985.6" y1="102.9" y2="102.9"/><line style="stroke:#A80036;stroke-width:1.0499999999999998;" x1="943.6" x2="985.6" y1="108.5" y2="108.5"/><!--MD5=[54d08704be622b91252e030e0f93b574]
class models.Attempt--><rect codeLine="21" fill="#FEFECE" filter="url(#f1mw3fp5ayjhot)" height="33.6" id="models.Attempt" style="stroke:#A80036;stroke-width:1.0499999999999998;" width="51.1" x="1011.15" y="80.5"/><ellipse cx="1021.65" cy="91.7" fill="#ADD1B2" rx="7.7" ry="7.7" style="stroke:#A80036;stroke-width:0.7;"/><path d="M1023.05,89.25 Q1023.1922,88.9 1023.3562,88.725 Q1023.5203,88.55 1023.7063,88.55 Q1024.0344,88.55 1024.2422,88.7469 Q1024.45,88.9438 1024.45,89.4031 L1024.45,90.4969 Q1024.45,90.9563 1024.2531,91.1531 Q1024.0562,91.35 1023.75,91.35 Q1023.4766,91.35 1023.3016,91.2297 Q1023.1266,91.1094 1023.05,90.7922 Q1023.0172,90.5734 1022.8969,90.4531 Q1022.6781,90.2234 1022.2844,90.0922 Q1021.8906,89.95 1021.4969,89.95 Q1021.0047,89.95 1020.5891,90.1469 Q1020.1844,90.3438 1019.8672,90.7813 Q1019.55,91.2188 1019.55,91.8203 L1019.55,92.4656 Q1019.55,93.1875 1020.1406,93.6687 Q1020.7312,94.15 1021.7812,94.15 Q1022.4047,94.15 1022.8422,94.0078 Q1023.0937,93.9312 1023.3781,93.6797 Q1023.5641,93.5375 1023.6625,93.4937 Q1023.7609,93.45 1023.8812,93.45 Q1024.1109,93.45 1024.275,93.6359 Q1024.45,93.8109 1024.45,94.0625 Q1024.45,94.3031 1024.2094,94.5875 Q1023.8594,95.0031 1023.3016,95.2328 Q1022.5687,95.55 1021.6719,95.55 Q1020.6219,95.55 1019.7797,95.1344 Q1019.1016,94.8062 1018.6203,94.0953 Q1018.15,93.3844 1018.15,92.5422 L1018.15,91.7766 Q1018.15,90.9016 1018.5656,90.1359 Q1018.9922,89.3703 1019.725,88.9656 Q1020.4687,88.55 1021.3,88.55 Q1021.8031,88.55 1022.2406,88.725 Q1022.6781,88.9 1023.05,89.25 Z " fill="#000000"/><text fill="#000000" font-family="sans-serif" font-size="8.4" lengthAdjust="spacing" textLength="28.7" x="1031.45" y="95.1371">Attempt</text><line style="stroke:#A80036;stroke-width:1.0499999999999998;" x1="1011.85" x2="1061.55" y1="102.9" y2="102.9"/><line style="stroke:#A80036;stroke-width:1.0499999999999998;" x1="1011.85" x2="1061.55" y1="108.5" y2="108.5"/><!--MD5=[58499357d4445bcc3ecc978ad55497c9]
class models.Color--><rect codeLine="22" fill="#FEFECE" filter="url(#f1mw3fp5ayjhot)" height="33.6" id="models.Color" style="stroke:#A80036;stroke-width:1.0499999999999998;" width="43.4" x="1087.1" y="80.5"/><ellipse cx="1097.6" cy="91.7" fill="#ADD1B2" rx="7.7" ry="7.7" style="stroke:#A80036;stroke-width:0.7;"/><path d="M1099,89.25 Q1099.1422,88.9 1099.3062,88.725 Q1099.4703,88.55 1099.6563,88.55 Q1099.9844,88.55 1100.1922,88.7469 Q1100.4,88.9438 1100.4,89.4031 L1100.4,90.4969 Q1100.4,90.9563 1100.2031,91.1531 Q1100.0063,91.35 1099.7,91.35 Q1099.4266,91.35 1099.2516,91.2297 Q1099.0766,91.1094 1099,90.7922 Q1098.9672,90.5734 1098.8469,90.4531 Q1098.6281,90.2234 1098.2344,90.0922 Q1097.8406,89.95 1097.4469,89.95 Q1096.9547,89.95 1096.5391,90.1469 Q1096.1344,90.3438 1095.8172,90.7813 Q1095.5,91.2188 1095.5,91.8203 L1095.5,92.4656 Q1095.5,93.1875 1096.0906,93.6687 Q1096.6812,94.15 1097.7312,94.15 Q1098.3547,94.15 1098.7922,94.0078 Q1099.0437,93.9312 1099.3281,93.6797 Q1099.5141,93.5375 1099.6125,93.4937 Q1099.7109,93.45 1099.8313,93.45 Q1100.0609,93.45 1100.225,93.6359 Q1100.4,93.8109 1100.4,94.0625 Q1100.4,94.3031 1100.1594,94.5875 Q1099.8094,95.0031 1099.2516,95.2328 Q1098.5188,95.55 1097.6219,95.55 Q1096.5719,95.55 1095.7297,95.1344 Q1095.0516,94.8062 1094.5703,94.0953 Q1094.1,93.3844 1094.1,92.5422 L1094.1,91.7766 Q1094.1,90.9016 1094.5156,90.1359 Q1094.9422,89.3703 1095.675,88.9656 Q1096.4187,88.55 1097.25,88.55 Q1097.7531,88.55 1098.1906,88.725 Q1098.6281,88.9 1099,89.25 Z " fill="#000000"/><text fill="#000000" font-family="sans-serif" font-size="8.4" lengthAdjust="spacing" textLength="21" x="1107.4" y="95.1371">Color</text><line style="stroke:#A80036;stroke-width:1.0499999999999998;" x1="1087.8" x2="1129.8" y1="102.9" y2="102.9"/><line style="stroke:#A80036;stroke-width:1.0499999999999998;" x1="1087.8" x2="1129.8" y1="108.5" y2="108.5"/><!--MD5=[3ab7dea9c5f32da8266d9170b1b41dc7]
class models.Combination--><rect codeLine="23" fill="#FEFECE" filter="url(#f1mw3fp5ayjhot)" height="33.6" id="models.Combination" style="stroke:#A80036;stroke-width:1.0499999999999998;" width="72.1" x="1155.35" y="80.5"/><ellipse cx="1165.85" cy="91.7" fill="#ADD1B2" rx="7.7" ry="7.7" style="stroke:#A80036;stroke-width:0.7;"/><path d="M1167.25,89.25 Q1167.3922,88.9 1167.5562,88.725 Q1167.7203,88.55 1167.9063,88.55 Q1168.2344,88.55 1168.4422,88.7469 Q1168.65,88.9438 1168.65,89.4031 L1168.65,90.4969 Q1168.65,90.9563 1168.4531,91.1531 Q1168.2563,91.35 1167.95,91.35 Q1167.6766,91.35 1167.5016,91.2297 Q1167.3266,91.1094 1167.25,90.7922 Q1167.2172,90.5734 1167.0969,90.4531 Q1166.8781,90.2234 1166.4844,90.0922 Q1166.0906,89.95 1165.6969,89.95 Q1165.2047,89.95 1164.7891,90.1469 Q1164.3844,90.3438 1164.0672,90.7813 Q1163.75,91.2188 1163.75,91.8203 L1163.75,92.4656 Q1163.75,93.1875 1164.3406,93.6687 Q1164.9312,94.15 1165.9812,94.15 Q1166.6047,94.15 1167.0422,94.0078 Q1167.2937,93.9312 1167.5781,93.6797 Q1167.7641,93.5375 1167.8625,93.4937 Q1167.9609,93.45 1168.0813,93.45 Q1168.3109,93.45 1168.475,93.6359 Q1168.65,93.8109 1168.65,94.0625 Q1168.65,94.3031 1168.4094,94.5875 Q1168.0594,95.0031 1167.5016,95.2328 Q1166.7688,95.55 1165.8719,95.55 Q1164.8219,95.55 1163.9797,95.1344 Q1163.3016,94.8062 1162.8203,94.0953 Q1162.35,93.3844 1162.35,92.5422 L1162.35,91.7766 Q1162.35,90.9016 1162.7656,90.1359 Q1163.1922,89.3703 1163.925,88.9656 Q1164.6687,88.55 1165.5,88.55 Q1166.0031,88.55 1166.4406,88.725 Q1166.8781,88.9 1167.25,89.25 Z " fill="#000000"/><text fill="#000000" font-family="sans-serif" font-size="8.4" lengthAdjust="spacing" textLength="49.7" x="1175.65" y="95.1371">Combination</text><line style="stroke:#A80036;stroke-width:1.0499999999999998;" x1="1156.05" x2="1226.75" y1="102.9" y2="102.9"/><line style="stroke:#A80036;stroke-width:1.0499999999999998;" x1="1156.05" x2="1226.75" y1="108.5" y2="108.5"/><!--MD5=[1ea5cf3e691bb3552ec8d5f9a56af156]
class models.Game--><rect codeLine="24" fill="#FEFECE" filter="url(#f1mw3fp5ayjhot)" height="33.6" id="models.Game" style="stroke:#A80036;stroke-width:1.0499999999999998;" width="46.2" x="963.9" y="156.1"/><ellipse cx="974.4" cy="167.3" fill="#ADD1B2" rx="7.7" ry="7.7" style="stroke:#A80036;stroke-width:0.7;"/><path d="M975.8,164.85 Q975.9422,164.5 976.1062,164.325 Q976.2703,164.15 976.4563,164.15 Q976.7844,164.15 976.9922,164.3469 Q977.2,164.5438 977.2,165.0031 L977.2,166.0969 Q977.2,166.5562 977.0031,166.7531 Q976.8063,166.95 976.5,166.95 Q976.2266,166.95 976.0516,166.8297 Q975.8766,166.7094 975.8,166.3922 Q975.7672,166.1734 975.6469,166.0531 Q975.4281,165.8234 975.0344,165.6922 Q974.6406,165.55 974.2469,165.55 Q973.7547,165.55 973.3391,165.7469 Q972.9344,165.9438 972.6172,166.3813 Q972.3,166.8188 972.3,167.4203 L972.3,168.0656 Q972.3,168.7875 972.8906,169.2687 Q973.4812,169.75 974.5312,169.75 Q975.1547,169.75 975.5922,169.6078 Q975.8437,169.5313 976.1281,169.2797 Q976.3141,169.1375 976.4125,169.0938 Q976.5109,169.05 976.6312,169.05 Q976.8609,169.05 977.025,169.2359 Q977.2,169.4109 977.2,169.6625 Q977.2,169.9031 976.9594,170.1875 Q976.6094,170.6031 976.0516,170.8328 Q975.3187,171.15 974.4219,171.15 Q973.3719,171.15 972.5297,170.7344 Q971.8516,170.4063 971.3703,169.6953 Q970.9,168.9844 970.9,168.1422 L970.9,167.3766 Q970.9,166.5016 971.3156,165.7359 Q971.7422,164.9703 972.475,164.5656 Q973.2187,164.15 974.05,164.15 Q974.5531,164.15 974.9906,164.325 Q975.4281,164.5 975.8,164.85 Z " fill="#000000"/><text fill="#000000" font-family="sans-serif" font-size="8.4" lengthAdjust="spacing" textLength="23.8" x="984.2" y="170.7371">Game</text><line style="stroke:#A80036;stroke-width:1.0499999999999998;" x1="964.6" x2="1009.4" y1="178.5" y2="178.5"/><line style="stroke:#A80036;stroke-width:1.0499999999999998;" x1="964.6" x2="1009.4" y1="184.1" y2="184.1"/><!--MD5=[ca1d71ce86c277371091067808338545]
class models.Message--><rect codeLine="25" fill="#FEFECE" filter="url(#f1mw3fp5ayjhot)" height="33.6" id="models.Message" style="stroke:#A80036;stroke-width:1.0499999999999998;" width="58.1" x="1034.95" y="156.1"/><ellipse cx="1045.45" cy="167.3" fill="#ADD1B2" rx="7.7" ry="7.7" style="stroke:#A80036;stroke-width:0.7;"/><path d="M1046.85,164.85 Q1046.9922,164.5 1047.1563,164.325 Q1047.3203,164.15 1047.5063,164.15 Q1047.8344,164.15 1048.0422,164.3469 Q1048.25,164.5438 1048.25,165.0031 L1048.25,166.0969 Q1048.25,166.5562 1048.0531,166.7531 Q1047.8563,166.95 1047.55,166.95 Q1047.2766,166.95 1047.1016,166.8297 Q1046.9266,166.7094 1046.85,166.3922 Q1046.8172,166.1734 1046.6969,166.0531 Q1046.4781,165.8234 1046.0844,165.6922 Q1045.6906,165.55 1045.2969,165.55 Q1044.8047,165.55 1044.3891,165.7469 Q1043.9844,165.9438 1043.6672,166.3813 Q1043.35,166.8188 1043.35,167.4203 L1043.35,168.0656 Q1043.35,168.7875 1043.9406,169.2687 Q1044.5313,169.75 1045.5813,169.75 Q1046.2047,169.75 1046.6422,169.6078 Q1046.8938,169.5313 1047.1781,169.2797 Q1047.3641,169.1375 1047.4625,169.0938 Q1047.5609,169.05 1047.6812,169.05 Q1047.9109,169.05 1048.075,169.2359 Q1048.25,169.4109 1048.25,169.6625 Q1048.25,169.9031 1048.0094,170.1875 Q1047.6594,170.6031 1047.1016,170.8328 Q1046.3687,171.15 1045.4719,171.15 Q1044.4219,171.15 1043.5797,170.7344 Q1042.9016,170.4063 1042.4203,169.6953 Q1041.95,168.9844 1041.95,168.1422 L1041.95,167.3766 Q1041.95,166.5016 1042.3656,165.7359 Q1042.7922,164.9703 1043.525,164.5656 Q1044.2688,164.15 1045.1,164.15 Q1045.6031,164.15 1046.0406,164.325 Q1046.4781,164.5 1046.85,164.85 Z " fill="#000000"/><text fill="#000000" font-family="sans-serif" font-size="8.4" lengthAdjust="spacing" textLength="35.7" x="1055.25" y="170.7371">Message</text><line style="stroke:#A80036;stroke-width:1.0499999999999998;" x1="1035.65" x2="1092.35" y1="178.5" y2="178.5"/><line style="stroke:#A80036;stroke-width:1.0499999999999998;" x1="1035.65" x2="1092.35" y1="184.1" y2="184.1"/><!--MD5=[9d437554863e80ad96398a79d9b4582d]
class models.ProposedCombination--><rect codeLine="26" fill="#FEFECE" filter="url(#f1mw3fp5ayjhot)" height="33.6" id="models.ProposedCombination" style="stroke:#A80036;stroke-width:1.0499999999999998;" width="109.9" x="1117.55" y="156.1"/><ellipse cx="1128.05" cy="167.3" fill="#ADD1B2" rx="7.7" ry="7.7" style="stroke:#A80036;stroke-width:0.7;"/><path d="M1129.45,164.85 Q1129.5922,164.5 1129.7563,164.325 Q1129.9203,164.15 1130.1062,164.15 Q1130.4344,164.15 1130.6422,164.3469 Q1130.85,164.5438 1130.85,165.0031 L1130.85,166.0969 Q1130.85,166.5562 1130.6531,166.7531 Q1130.4563,166.95 1130.15,166.95 Q1129.8766,166.95 1129.7016,166.8297 Q1129.5266,166.7094 1129.45,166.3922 Q1129.4172,166.1734 1129.2969,166.0531 Q1129.0781,165.8234 1128.6844,165.6922 Q1128.2906,165.55 1127.8969,165.55 Q1127.4047,165.55 1126.9891,165.7469 Q1126.5844,165.9438 1126.2672,166.3813 Q1125.95,166.8188 1125.95,167.4203 L1125.95,168.0656 Q1125.95,168.7875 1126.5406,169.2687 Q1127.1313,169.75 1128.1812,169.75 Q1128.8047,169.75 1129.2422,169.6078 Q1129.4937,169.5313 1129.7781,169.2797 Q1129.9641,169.1375 1130.0625,169.0938 Q1130.1609,169.05 1130.2813,169.05 Q1130.5109,169.05 1130.675,169.2359 Q1130.85,169.4109 1130.85,169.6625 Q1130.85,169.9031 1130.6094,170.1875 Q1130.2594,170.6031 1129.7016,170.8328 Q1128.9688,171.15 1128.0719,171.15 Q1127.0219,171.15 1126.1797,170.7344 Q1125.5016,170.4063 1125.0203,169.6953 Q1124.55,168.9844 1124.55,168.1422 L1124.55,167.3766 Q1124.55,166.5016 1124.9656,165.7359 Q1125.3922,164.9703 1126.125,164.5656 Q1126.8687,164.15 1127.7,164.15 Q1128.2031,164.15 1128.6406,164.325 Q1129.0781,164.5 1129.45,164.85 Z " fill="#000000"/><text fill="#000000" font-family="sans-serif" font-size="8.4" lengthAdjust="spacing" textLength="87.5" x="1137.85" y="170.7371">ProposedCombination</text><line style="stroke:#A80036;stroke-width:1.0499999999999998;" x1="1118.25" x2="1226.75" y1="178.5" y2="178.5"/><line style="stroke:#A80036;stroke-width:1.0499999999999998;" x1="1118.25" x2="1226.75" y1="184.1" y2="184.1"/><!--MD5=[b89ed330bc8394929f0ad94fa56293db]
class models.SecretCombination--><rect codeLine="27" fill="#FEFECE" filter="url(#f1mw3fp5ayjhot)" height="33.6" id="models.SecretCombination" style="stroke:#A80036;stroke-width:1.0499999999999998;" width="96.6" x="942.9" y="242.9"/><ellipse cx="953.4" cy="254.1" fill="#ADD1B2" rx="7.7" ry="7.7" style="stroke:#A80036;stroke-width:0.7;"/><path d="M954.8,251.65 Q954.9422,251.3 955.1062,251.125 Q955.2703,250.95 955.4563,250.95 Q955.7844,250.95 955.9922,251.1469 Q956.2,251.3437 956.2,251.8031 L956.2,252.8969 Q956.2,253.3563 956.0031,253.5531 Q955.8063,253.75 955.5,253.75 Q955.2266,253.75 955.0516,253.6297 Q954.8766,253.5094 954.8,253.1922 Q954.7672,252.9734 954.6469,252.8531 Q954.4281,252.6234 954.0344,252.4922 Q953.6406,252.35 953.2469,252.35 Q952.7547,252.35 952.3391,252.5469 Q951.9344,252.7437 951.6172,253.1812 Q951.3,253.6187 951.3,254.2203 L951.3,254.8656 Q951.3,255.5875 951.8906,256.0687 Q952.4812,256.55 953.5312,256.55 Q954.1547,256.55 954.5922,256.4078 Q954.8437,256.3313 955.1281,256.0797 Q955.3141,255.9375 955.4125,255.8937 Q955.5109,255.85 955.6312,255.85 Q955.8609,255.85 956.025,256.0359 Q956.2,256.2109 956.2,256.4625 Q956.2,256.7031 955.9594,256.9875 Q955.6094,257.4031 955.0516,257.6328 Q954.3187,257.95 953.4219,257.95 Q952.3719,257.95 951.5297,257.5344 Q950.8516,257.2063 950.3703,256.4953 Q949.9,255.7844 949.9,254.9422 L949.9,254.1766 Q949.9,253.3016 950.3156,252.5359 Q950.7422,251.7703 951.475,251.3656 Q952.2187,250.95 953.05,250.95 Q953.5531,250.95 953.9906,251.125 Q954.4281,251.3 954.8,251.65 Z " fill="#000000"/><text fill="#000000" font-family="sans-serif" font-size="8.4" lengthAdjust="spacing" textLength="74.2" x="963.2" y="257.5371">SecretCombination</text><line style="stroke:#A80036;stroke-width:1.0499999999999998;" x1="943.6" x2="1038.8" y1="265.3" y2="265.3"/><line style="stroke:#A80036;stroke-width:1.0499999999999998;" x1="943.6" x2="1038.8" y1="270.9" y2="270.9"/><!--MD5=[2be34c3508109d2174a868e624d0f343]
class models.State--><rect codeLine="28" fill="#FEFECE" filter="url(#f1mw3fp5ayjhot)" height="33.6" id="models.State" style="stroke:#A80036;stroke-width:1.0499999999999998;" width="42" x="1064" y="242.9"/><ellipse cx="1074.5" cy="254.1" fill="#ADD1B2" rx="7.7" ry="7.7" style="stroke:#A80036;stroke-width:0.7;"/><path d="M1075.9,251.65 Q1076.0422,251.3 1076.2063,251.125 Q1076.3703,250.95 1076.5562,250.95 Q1076.8844,250.95 1077.0922,251.1469 Q1077.3,251.3437 1077.3,251.8031 L1077.3,252.8969 Q1077.3,253.3563 1077.1031,253.5531 Q1076.9063,253.75 1076.6,253.75 Q1076.3266,253.75 1076.1516,253.6297 Q1075.9766,253.5094 1075.9,253.1922 Q1075.8672,252.9734 1075.7469,252.8531 Q1075.5281,252.6234 1075.1344,252.4922 Q1074.7406,252.35 1074.3469,252.35 Q1073.8547,252.35 1073.4391,252.5469 Q1073.0344,252.7437 1072.7172,253.1812 Q1072.4,253.6187 1072.4,254.2203 L1072.4,254.8656 Q1072.4,255.5875 1072.9906,256.0687 Q1073.5813,256.55 1074.6313,256.55 Q1075.2547,256.55 1075.6922,256.4078 Q1075.9438,256.3313 1076.2281,256.0797 Q1076.4141,255.9375 1076.5125,255.8937 Q1076.6109,255.85 1076.7312,255.85 Q1076.9609,255.85 1077.125,256.0359 Q1077.3,256.2109 1077.3,256.4625 Q1077.3,256.7031 1077.0594,256.9875 Q1076.7094,257.4031 1076.1516,257.6328 Q1075.4187,257.95 1074.5219,257.95 Q1073.4719,257.95 1072.6297,257.5344 Q1071.9516,257.2063 1071.4703,256.4953 Q1071,255.7844 1071,254.9422 L1071,254.1766 Q1071,253.3016 1071.4156,252.5359 Q1071.8422,251.7703 1072.575,251.3656 Q1073.3188,250.95 1074.15,250.95 Q1074.6531,250.95 1075.0906,251.125 Q1075.5281,251.3 1075.9,251.65 Z " fill="#000000"/><text fill="#000000" font-family="sans-serif" font-size="8.4" lengthAdjust="spacing" textLength="19.6" x="1084.3" y="257.5371">State</text><line style="stroke:#A80036;stroke-width:1.0499999999999998;" x1="1064.7" x2="1105.3" y1="265.3" y2="265.3"/><line style="stroke:#A80036;stroke-width:1.0499999999999998;" x1="1064.7" x2="1105.3" y1="270.9" y2="270.9"/><!--MD5=[286cce848db7c45db382960b079695c1]
class models.StateValue--><rect codeLine="29" fill="#FEFECE" filter="url(#f1mw3fp5ayjhot)" height="33.6" id="models.StateValue" style="stroke:#A80036;stroke-width:1.0499999999999998;" width="63.7" x="1130.85" y="242.9"/><ellipse cx="1141.35" cy="254.1" fill="#ADD1B2" rx="7.7" ry="7.7" style="stroke:#A80036;stroke-width:0.7;"/><path d="M1142.75,251.65 Q1142.8922,251.3 1143.0562,251.125 Q1143.2203,250.95 1143.4063,250.95 Q1143.7344,250.95 1143.9422,251.1469 Q1144.15,251.3437 1144.15,251.8031 L1144.15,252.8969 Q1144.15,253.3563 1143.9531,253.5531 Q1143.7563,253.75 1143.45,253.75 Q1143.1766,253.75 1143.0016,253.6297 Q1142.8266,253.5094 1142.75,253.1922 Q1142.7172,252.9734 1142.5969,252.8531 Q1142.3781,252.6234 1141.9844,252.4922 Q1141.5906,252.35 1141.1969,252.35 Q1140.7047,252.35 1140.2891,252.5469 Q1139.8844,252.7437 1139.5672,253.1812 Q1139.25,253.6187 1139.25,254.2203 L1139.25,254.8656 Q1139.25,255.5875 1139.8406,256.0687 Q1140.4312,256.55 1141.4812,256.55 Q1142.1047,256.55 1142.5422,256.4078 Q1142.7937,256.3313 1143.0781,256.0797 Q1143.2641,255.9375 1143.3625,255.8937 Q1143.4609,255.85 1143.5813,255.85 Q1143.8109,255.85 1143.975,256.0359 Q1144.15,256.2109 1144.15,256.4625 Q1144.15,256.7031 1143.9094,256.9875 Q1143.5594,257.4031 1143.0016,257.6328 Q1142.2688,257.95 1141.3719,257.95 Q1140.3219,257.95 1139.4797,257.5344 Q1138.8016,257.2063 1138.3203,256.4953 Q1137.85,255.7844 1137.85,254.9422 L1137.85,254.1766 Q1137.85,253.3016 1138.2656,252.5359 Q1138.6922,251.7703 1139.425,251.3656 Q1140.1687,250.95 1141,250.95 Q1141.5031,250.95 1141.9406,251.125 Q1142.3781,251.3 1142.75,251.65 Z " fill="#000000"/><text fill="#000000" font-family="sans-serif" font-size="8.4" lengthAdjust="spacing" textLength="41.3" x="1151.15" y="257.5371">StateValue</text><line style="stroke:#A80036;stroke-width:1.0499999999999998;" x1="1131.55" x2="1193.85" y1="265.3" y2="265.3"/><line style="stroke:#A80036;stroke-width:1.0499999999999998;" x1="1131.55" x2="1193.85" y1="270.9" y2="270.9"/><!--MD5=[c6440925ac5e46774a6c6ce790d315b9]
class views.View--><rect fill="#FEFECE" filter="url(#f1mw3fp5ayjhot)" height="33.6" id="views.View" style="stroke:#A80036;stroke-width:1.0499999999999998;" width="40.6" x="439.6" y="156.1"/><ellipse cx="450.1" cy="167.3" fill="#ADD1B2" rx="7.7" ry="7.7" style="stroke:#A80036;stroke-width:0.7;"/><path d="M451.5,164.85 Q451.6422,164.5 451.8063,164.325 Q451.9703,164.15 452.1562,164.15 Q452.4844,164.15 452.6922,164.3469 Q452.9,164.5438 452.9,165.0031 L452.9,166.0969 Q452.9,166.5562 452.7031,166.7531 Q452.5062,166.95 452.2,166.95 Q451.9266,166.95 451.7516,166.8297 Q451.5766,166.7094 451.5,166.3922 Q451.4672,166.1734 451.3469,166.0531 Q451.1281,165.8234 450.7344,165.6922 Q450.3406,165.55 449.9469,165.55 Q449.4547,165.55 449.0391,165.7469 Q448.6344,165.9438 448.3172,166.3813 Q448,166.8188 448,167.4203 L448,168.0656 Q448,168.7875 448.5906,169.2687 Q449.1813,169.75 450.2313,169.75 Q450.8547,169.75 451.2922,169.6078 Q451.5438,169.5313 451.8281,169.2797 Q452.0141,169.1375 452.1125,169.0938 Q452.2109,169.05 452.3312,169.05 Q452.5609,169.05 452.725,169.2359 Q452.9,169.4109 452.9,169.6625 Q452.9,169.9031 452.6594,170.1875 Q452.3094,170.6031 451.7516,170.8328 Q451.0187,171.15 450.1219,171.15 Q449.0719,171.15 448.2297,170.7344 Q447.5516,170.4063 447.0703,169.6953 Q446.6,168.9844 446.6,168.1422 L446.6,167.3766 Q446.6,166.5016 447.0156,165.7359 Q447.4422,164.9703 448.175,164.5656 Q448.9188,164.15 449.75,164.15 Q450.2531,164.15 450.6906,164.325 Q451.1281,164.5 451.5,164.85 Z " fill="#000000"/><text fill="#000000" font-family="sans-serif" font-size="8.4" lengthAdjust="spacing" textLength="18.2" x="459.9" y="170.7371">View</text><line style="stroke:#A80036;stroke-width:1.0499999999999998;" x1="440.3" x2="479.5" y1="178.5" y2="178.5"/><line style="stroke:#A80036;stroke-width:1.0499999999999998;" x1="440.3" x2="479.5" y1="184.1" y2="184.1"/><!--MD5=[d538e9e3e9ace5a9c5dcbfba7654f5f1]
class controllers.Controller--><rect fill="#FEFECE" filter="url(#f1mw3fp5ayjhot)" height="33.6" id="controllers.Controller" style="stroke:#A80036;stroke-width:1.0499999999999998;" width="60.2" x="753.9" y="156.1"/><ellipse cx="764.4" cy="167.3" fill="#ADD1B2" rx="7.7" ry="7.7" style="stroke:#A80036;stroke-width:0.7;"/><path d="M765.8,164.85 Q765.9422,164.5 766.1062,164.325 Q766.2703,164.15 766.4563,164.15 Q766.7844,164.15 766.9922,164.3469 Q767.2,164.5438 767.2,165.0031 L767.2,166.0969 Q767.2,166.5562 767.0031,166.7531 Q766.8063,166.95 766.5,166.95 Q766.2266,166.95 766.0516,166.8297 Q765.8766,166.7094 765.8,166.3922 Q765.7672,166.1734 765.6469,166.0531 Q765.4281,165.8234 765.0344,165.6922 Q764.6406,165.55 764.2469,165.55 Q763.7547,165.55 763.3391,165.7469 Q762.9344,165.9438 762.6172,166.3813 Q762.3,166.8188 762.3,167.4203 L762.3,168.0656 Q762.3,168.7875 762.8906,169.2687 Q763.4812,169.75 764.5313,169.75 Q765.1547,169.75 765.5922,169.6078 Q765.8438,169.5313 766.1281,169.2797 Q766.3141,169.1375 766.4125,169.0938 Q766.5109,169.05 766.6312,169.05 Q766.8609,169.05 767.025,169.2359 Q767.2,169.4109 767.2,169.6625 Q767.2,169.9031 766.9594,170.1875 Q766.6094,170.6031 766.0516,170.8328 Q765.3187,171.15 764.4219,171.15 Q763.3719,171.15 762.5297,170.7344 Q761.8516,170.4063 761.3703,169.6953 Q760.9,168.9844 760.9,168.1422 L760.9,167.3766 Q760.9,166.5016 761.3156,165.7359 Q761.7422,164.9703 762.475,164.5656 Q763.2188,164.15 764.05,164.15 Q764.5531,164.15 764.9906,164.325 Q765.4281,164.5 765.8,164.85 Z " fill="#000000"/><text fill="#000000" font-family="sans-serif" font-size="8.4" lengthAdjust="spacing" textLength="37.8" x="774.2" y="170.7371">Controller</text><line style="stroke:#A80036;stroke-width:1.0499999999999998;" x1="754.6" x2="813.4" y1="178.5" y2="178.5"/><line style="stroke:#A80036;stroke-width:1.0499999999999998;" x1="754.6" x2="813.4" y1="184.1" y2="184.1"/><!--MD5=[1ca606ade29448d66bff39c3ca169238]
class controllers.StartController--><rect fill="#FEFECE" filter="url(#f1mw3fp5ayjhot)" height="33.6" id="controllers.StartController" style="stroke:#A80036;stroke-width:1.0499999999999998;" width="77.7" x="535.15" y="242.9"/><ellipse cx="545.65" cy="254.1" fill="#ADD1B2" rx="7.7" ry="7.7" style="stroke:#A80036;stroke-width:0.7;"/><path d="M547.05,251.65 Q547.1922,251.3 547.3562,251.125 Q547.5203,250.95 547.7063,250.95 Q548.0344,250.95 548.2422,251.1469 Q548.45,251.3437 548.45,251.8031 L548.45,252.8969 Q548.45,253.3563 548.2531,253.5531 Q548.0563,253.75 547.75,253.75 Q547.4766,253.75 547.3016,253.6297 Q547.1266,253.5094 547.05,253.1922 Q547.0172,252.9734 546.8969,252.8531 Q546.6781,252.6234 546.2844,252.4922 Q545.8906,252.35 545.4969,252.35 Q545.0047,252.35 544.5891,252.5469 Q544.1844,252.7437 543.8672,253.1812 Q543.55,253.6187 543.55,254.2203 L543.55,254.8656 Q543.55,255.5875 544.1406,256.0687 Q544.7312,256.55 545.7813,256.55 Q546.4047,256.55 546.8422,256.4078 Q547.0938,256.3313 547.3781,256.0797 Q547.5641,255.9375 547.6625,255.8937 Q547.7609,255.85 547.8812,255.85 Q548.1109,255.85 548.275,256.0359 Q548.45,256.2109 548.45,256.4625 Q548.45,256.7031 548.2094,256.9875 Q547.8594,257.4031 547.3016,257.6328 Q546.5687,257.95 545.6719,257.95 Q544.6219,257.95 543.7797,257.5344 Q543.1016,257.2063 542.6203,256.4953 Q542.15,255.7844 542.15,254.9422 L542.15,254.1766 Q542.15,253.3016 542.5656,252.5359 Q542.9922,251.7703 543.725,251.3656 Q544.4688,250.95 545.3,250.95 Q545.8031,250.95 546.2406,251.125 Q546.6781,251.3 547.05,251.65 Z " fill="#000000"/><text fill="#000000" font-family="sans-serif" font-size="8.4" lengthAdjust="spacing" textLength="55.3" x="555.45" y="257.5371">StartController</text><line style="stroke:#A80036;stroke-width:1.0499999999999998;" x1="535.85" x2="612.15" y1="265.3" y2="265.3"/><line style="stroke:#A80036;stroke-width:1.0499999999999998;" x1="535.85" x2="612.15" y1="270.9" y2="270.9"/><!--MD5=[dccc9676c8acb62178aa8b8fb25d2069]
class controllers.ProposedCombinationController--><rect fill="#FEFECE" filter="url(#f1mw3fp5ayjhot)" height="33.6" id="controllers.ProposedCombinationController" style="stroke:#A80036;stroke-width:1.0499999999999998;" width="147.7" x="637.35" y="242.9"/><ellipse cx="647.85" cy="254.1" fill="#ADD1B2" rx="7.7" ry="7.7" style="stroke:#A80036;stroke-width:0.7;"/><path d="M649.25,251.65 Q649.3922,251.3 649.5563,251.125 Q649.7203,250.95 649.9063,250.95 Q650.2344,250.95 650.4422,251.1469 Q650.65,251.3437 650.65,251.8031 L650.65,252.8969 Q650.65,253.3563 650.4531,253.5531 Q650.2562,253.75 649.95,253.75 Q649.6766,253.75 649.5016,253.6297 Q649.3266,253.5094 649.25,253.1922 Q649.2172,252.9734 649.0969,252.8531 Q648.8781,252.6234 648.4844,252.4922 Q648.0906,252.35 647.6969,252.35 Q647.2047,252.35 646.7891,252.5469 Q646.3844,252.7437 646.0672,253.1812 Q645.75,253.6187 645.75,254.2203 L645.75,254.8656 Q645.75,255.5875 646.3406,256.0687 Q646.9313,256.55 647.9812,256.55 Q648.6047,256.55 649.0422,256.4078 Q649.2937,256.3313 649.5781,256.0797 Q649.7641,255.9375 649.8625,255.8937 Q649.9609,255.85 650.0813,255.85 Q650.3109,255.85 650.475,256.0359 Q650.65,256.2109 650.65,256.4625 Q650.65,256.7031 650.4094,256.9875 Q650.0594,257.4031 649.5016,257.6328 Q648.7688,257.95 647.8719,257.95 Q646.8219,257.95 645.9797,257.5344 Q645.3016,257.2063 644.8203,256.4953 Q644.35,255.7844 644.35,254.9422 L644.35,254.1766 Q644.35,253.3016 644.7656,252.5359 Q645.1922,251.7703 645.925,251.3656 Q646.6687,250.95 647.5,250.95 Q648.0031,250.95 648.4406,251.125 Q648.8781,251.3 649.25,251.65 Z " fill="#000000"/><text fill="#000000" font-family="sans-serif" font-size="8.4" lengthAdjust="spacing" textLength="125.3" x="657.65" y="257.5371">ProposedCombinationController</text><line style="stroke:#A80036;stroke-width:1.0499999999999998;" x1="638.05" x2="784.35" y1="265.3" y2="265.3"/><line style="stroke:#A80036;stroke-width:1.0499999999999998;" x1="638.05" x2="784.35" y1="270.9" y2="270.9"/><!--MD5=[12e816d8ac45337d932400bf96e6eca7]
class controllers.ResumeController--><rect fill="#FEFECE" filter="url(#f1mw3fp5ayjhot)" height="33.6" id="controllers.ResumeController" style="stroke:#A80036;stroke-width:1.0499999999999998;" width="93.8" x="809.9" y="242.9"/><ellipse cx="820.4" cy="254.1" fill="#ADD1B2" rx="7.7" ry="7.7" style="stroke:#A80036;stroke-width:0.7;"/><path d="M821.8,251.65 Q821.9422,251.3 822.1062,251.125 Q822.2703,250.95 822.4563,250.95 Q822.7844,250.95 822.9922,251.1469 Q823.2,251.3437 823.2,251.8031 L823.2,252.8969 Q823.2,253.3563 823.0031,253.5531 Q822.8063,253.75 822.5,253.75 Q822.2266,253.75 822.0516,253.6297 Q821.8766,253.5094 821.8,253.1922 Q821.7672,252.9734 821.6469,252.8531 Q821.4281,252.6234 821.0344,252.4922 Q820.6406,252.35 820.2469,252.35 Q819.7547,252.35 819.3391,252.5469 Q818.9344,252.7437 818.6172,253.1812 Q818.3,253.6187 818.3,254.2203 L818.3,254.8656 Q818.3,255.5875 818.8906,256.0687 Q819.4812,256.55 820.5313,256.55 Q821.1547,256.55 821.5922,256.4078 Q821.8438,256.3313 822.1281,256.0797 Q822.3141,255.9375 822.4125,255.8937 Q822.5109,255.85 822.6312,255.85 Q822.8609,255.85 823.025,256.0359 Q823.2,256.2109 823.2,256.4625 Q823.2,256.7031 822.9594,256.9875 Q822.6094,257.4031 822.0516,257.6328 Q821.3187,257.95 820.4219,257.95 Q819.3719,257.95 818.5297,257.5344 Q817.8516,257.2063 817.3703,256.4953 Q816.9,255.7844 816.9,254.9422 L816.9,254.1766 Q816.9,253.3016 817.3156,252.5359 Q817.7422,251.7703 818.475,251.3656 Q819.2188,250.95 820.05,250.95 Q820.5531,250.95 820.9906,251.125 Q821.4281,251.3 821.8,251.65 Z " fill="#000000"/><text fill="#000000" font-family="sans-serif" font-size="8.4" lengthAdjust="spacing" textLength="71.4" x="830.2" y="257.5371">ResumeController</text><line style="stroke:#A80036;stroke-width:1.0499999999999998;" x1="810.6" x2="903" y1="265.3" y2="265.3"/><line style="stroke:#A80036;stroke-width:1.0499999999999998;" x1="810.6" x2="903" y1="270.9" y2="270.9"/><!--MD5=[9c3ecf5778a50c7c983b390ce6fdde9e]
class views.console.ConsoleView--><rect fill="#FEFECE" filter="url(#f1mw3fp5ayjhot)" height="33.6" id="views.console.ConsoleView" style="stroke:#A80036;stroke-width:1.0499999999999998;" width="73.5" x="224.35" y="242.9"/><ellipse cx="234.85" cy="254.1" fill="#ADD1B2" rx="7.7" ry="7.7" style="stroke:#A80036;stroke-width:0.7;"/><path d="M236.25,251.65 Q236.3922,251.3 236.5562,251.125 Q236.7203,250.95 236.9062,250.95 Q237.2344,250.95 237.4422,251.1469 Q237.65,251.3437 237.65,251.8031 L237.65,252.8969 Q237.65,253.3563 237.4531,253.5531 Q237.2563,253.75 236.95,253.75 Q236.6766,253.75 236.5016,253.6297 Q236.3266,253.5094 236.25,253.1922 Q236.2172,252.9734 236.0969,252.8531 Q235.8781,252.6234 235.4844,252.4922 Q235.0906,252.35 234.6969,252.35 Q234.2047,252.35 233.7891,252.5469 Q233.3844,252.7437 233.0672,253.1812 Q232.75,253.6187 232.75,254.2203 L232.75,254.8656 Q232.75,255.5875 233.3406,256.0687 Q233.9312,256.55 234.9813,256.55 Q235.6047,256.55 236.0422,256.4078 Q236.2938,256.3313 236.5781,256.0797 Q236.7641,255.9375 236.8625,255.8937 Q236.9609,255.85 237.0812,255.85 Q237.3109,255.85 237.475,256.0359 Q237.65,256.2109 237.65,256.4625 Q237.65,256.7031 237.4094,256.9875 Q237.0594,257.4031 236.5016,257.6328 Q235.7687,257.95 234.8719,257.95 Q233.8219,257.95 232.9797,257.5344 Q232.3016,257.2063 231.8203,256.4953 Q231.35,255.7844 231.35,254.9422 L231.35,254.1766 Q231.35,253.3016 231.7656,252.5359 Q232.1922,251.7703 232.925,251.3656 Q233.6688,250.95 234.5,250.95 Q235.0031,250.95 235.4406,251.125 Q235.8781,251.3 236.25,251.65 Z " fill="#000000"/><text fill="#000000" font-family="sans-serif" font-size="8.4" lengthAdjust="spacing" textLength="51.1" x="244.65" y="257.5371">ConsoleView</text><line style="stroke:#A80036;stroke-width:1.0499999999999998;" x1="225.05" x2="297.15" y1="265.3" y2="265.3"/><line style="stroke:#A80036;stroke-width:1.0499999999999998;" x1="225.05" x2="297.15" y1="270.9" y2="270.9"/><!--MD5=[9f4dc69b0b544243f394be7db57a7790]
class views.console.GameView--><rect fill="#FEFECE" filter="url(#f1mw3fp5ayjhot)" height="33.6" id="views.console.GameView" style="stroke:#A80036;stroke-width:1.0499999999999998;" width="64.4" x="185.5" y="318.5"/><ellipse cx="196" cy="329.7" fill="#ADD1B2" rx="7.7" ry="7.7" style="stroke:#A80036;stroke-width:0.7;"/><path d="M197.4,327.25 Q197.5422,326.9 197.7062,326.725 Q197.8703,326.55 198.0562,326.55 Q198.3844,326.55 198.5922,326.7469 Q198.8,326.9437 198.8,327.4031 L198.8,328.4969 Q198.8,328.9562 198.6031,329.1531 Q198.4063,329.35 198.1,329.35 Q197.8266,329.35 197.6516,329.2297 Q197.4766,329.1094 197.4,328.7922 Q197.3672,328.5734 197.2469,328.4531 Q197.0281,328.2234 196.6344,328.0922 Q196.2406,327.95 195.8469,327.95 Q195.3547,327.95 194.9391,328.1469 Q194.5344,328.3438 194.2172,328.7813 Q193.9,329.2188 193.9,329.8203 L193.9,330.4656 Q193.9,331.1875 194.4906,331.6688 Q195.0812,332.15 196.1313,332.15 Q196.7547,332.15 197.1922,332.0078 Q197.4438,331.9313 197.7281,331.6797 Q197.9141,331.5375 198.0125,331.4938 Q198.1109,331.45 198.2313,331.45 Q198.4609,331.45 198.625,331.6359 Q198.8,331.8109 198.8,332.0625 Q198.8,332.3031 198.5594,332.5875 Q198.2094,333.0031 197.6516,333.2328 Q196.9188,333.55 196.0219,333.55 Q194.9719,333.55 194.1297,333.1344 Q193.4516,332.8063 192.9703,332.0953 Q192.5,331.3844 192.5,330.5422 L192.5,329.7766 Q192.5,328.9016 192.9156,328.1359 Q193.3422,327.3703 194.075,326.9656 Q194.8188,326.55 195.65,326.55 Q196.1531,326.55 196.5906,326.725 Q197.0281,326.9 197.4,327.25 Z " fill="#000000"/><text fill="#000000" font-family="sans-serif" font-size="8.4" lengthAdjust="spacing" textLength="42" x="205.8" y="333.1371">GameView</text><line style="stroke:#A80036;stroke-width:1.0499999999999998;" x1="186.2" x2="249.2" y1="340.9" y2="340.9"/><line style="stroke:#A80036;stroke-width:1.0499999999999998;" x1="186.2" x2="249.2" y1="346.5" y2="346.5"/><!--MD5=[937bc8db9504e57eafe08f070c3ff59c]
class views.console.AttemptView--><rect fill="#FEFECE" filter="url(#f1mw3fp5ayjhot)" height="33.6" id="views.console.AttemptView" style="stroke:#A80036;stroke-width:1.0499999999999998;" width="69.3" x="22.75" y="394.1"/><ellipse cx="33.25" cy="405.3" fill="#ADD1B2" rx="7.7" ry="7.7" style="stroke:#A80036;stroke-width:0.7;"/><path d="M34.65,402.85 Q34.7922,402.5 34.9563,402.325 Q35.1203,402.15 35.3063,402.15 Q35.6344,402.15 35.8422,402.3469 Q36.05,402.5438 36.05,403.0031 L36.05,404.0969 Q36.05,404.5563 35.8531,404.7531 Q35.6563,404.95 35.35,404.95 Q35.0766,404.95 34.9016,404.8297 Q34.7266,404.7094 34.65,404.3922 Q34.6172,404.1734 34.4969,404.0531 Q34.2781,403.8234 33.8844,403.6922 Q33.4906,403.55 33.0969,403.55 Q32.6047,403.55 32.1891,403.7469 Q31.7844,403.9437 31.4672,404.3812 Q31.15,404.8187 31.15,405.4203 L31.15,406.0656 Q31.15,406.7875 31.7406,407.2687 Q32.3313,407.75 33.3813,407.75 Q34.0047,407.75 34.4422,407.6078 Q34.6937,407.5313 34.9781,407.2797 Q35.1641,407.1375 35.2625,407.0938 Q35.3609,407.05 35.4812,407.05 Q35.7109,407.05 35.875,407.2359 Q36.05,407.4109 36.05,407.6625 Q36.05,407.9031 35.8094,408.1875 Q35.4594,408.6031 34.9016,408.8328 Q34.1687,409.15 33.2719,409.15 Q32.2219,409.15 31.3797,408.7344 Q30.7016,408.4063 30.2203,407.6953 Q29.75,406.9844 29.75,406.1422 L29.75,405.3766 Q29.75,404.5016 30.1656,403.7359 Q30.5922,402.9703 31.325,402.5656 Q32.0688,402.15 32.9,402.15 Q33.4031,402.15 33.8406,402.325 Q34.2781,402.5 34.65,402.85 Z " fill="#000000"/><text fill="#000000" font-family="sans-serif" font-size="8.4" lengthAdjust="spacing" textLength="46.9" x="43.05" y="408.7371">AttemptView</text><line style="stroke:#A80036;stroke-width:1.0499999999999998;" x1="23.45" x2="91.35" y1="416.5" y2="416.5"/><line style="stroke:#A80036;stroke-width:1.0499999999999998;" x1="23.45" x2="91.35" y1="422.1" y2="422.1"/><!--MD5=[52f795c826f81af7fbdfc10d6f76edf3]
class views.console.SecretCombinationView--><rect fill="#FEFECE" filter="url(#f1mw3fp5ayjhot)" height="33.6" id="views.console.SecretCombinationView" style="stroke:#A80036;stroke-width:1.0499999999999998;" width="114.8" x="116.9" y="394.1"/><ellipse cx="127.4" cy="405.3" fill="#ADD1B2" rx="7.7" ry="7.7" style="stroke:#A80036;stroke-width:0.7;"/><path d="M128.8,402.85 Q128.9422,402.5 129.1063,402.325 Q129.2703,402.15 129.4562,402.15 Q129.7844,402.15 129.9922,402.3469 Q130.2,402.5438 130.2,403.0031 L130.2,404.0969 Q130.2,404.5563 130.0031,404.7531 Q129.8063,404.95 129.5,404.95 Q129.2266,404.95 129.0516,404.8297 Q128.8766,404.7094 128.8,404.3922 Q128.7672,404.1734 128.6469,404.0531 Q128.4281,403.8234 128.0344,403.6922 Q127.6406,403.55 127.2469,403.55 Q126.7547,403.55 126.3391,403.7469 Q125.9344,403.9437 125.6172,404.3812 Q125.3,404.8187 125.3,405.4203 L125.3,406.0656 Q125.3,406.7875 125.8906,407.2687 Q126.4812,407.75 127.5312,407.75 Q128.1547,407.75 128.5922,407.6078 Q128.8438,407.5313 129.1281,407.2797 Q129.3141,407.1375 129.4125,407.0938 Q129.5109,407.05 129.6313,407.05 Q129.8609,407.05 130.025,407.2359 Q130.2,407.4109 130.2,407.6625 Q130.2,407.9031 129.9594,408.1875 Q129.6094,408.6031 129.0516,408.8328 Q128.3188,409.15 127.4219,409.15 Q126.3719,409.15 125.5297,408.7344 Q124.8516,408.4063 124.3703,407.6953 Q123.9,406.9844 123.9,406.1422 L123.9,405.3766 Q123.9,404.5016 124.3156,403.7359 Q124.7422,402.9703 125.475,402.5656 Q126.2187,402.15 127.05,402.15 Q127.5531,402.15 127.9906,402.325 Q128.4281,402.5 128.8,402.85 Z " fill="#000000"/><text fill="#000000" font-family="sans-serif" font-size="8.4" lengthAdjust="spacing" textLength="92.4" x="137.2" y="408.7371">SecretCombinationView</text><line style="stroke:#A80036;stroke-width:1.0499999999999998;" x1="117.6" x2="231" y1="416.5" y2="416.5"/><line style="stroke:#A80036;stroke-width:1.0499999999999998;" x1="117.6" x2="231" y1="422.1" y2="422.1"/><!--MD5=[83bd2f70f652e01548aaf5aa946c23ed]
class views.console.ProposedCombinationView--><rect fill="#FEFECE" filter="url(#f1mw3fp5ayjhot)" height="33.6" id="views.console.ProposedCombinationView" style="stroke:#A80036;stroke-width:1.0499999999999998;" width="128.1" x="256.55" y="394.1"/><ellipse cx="267.05" cy="405.3" fill="#ADD1B2" rx="7.7" ry="7.7" style="stroke:#A80036;stroke-width:0.7;"/><path d="M268.45,402.85 Q268.5922,402.5 268.7562,402.325 Q268.9203,402.15 269.1063,402.15 Q269.4344,402.15 269.6422,402.3469 Q269.85,402.5438 269.85,403.0031 L269.85,404.0969 Q269.85,404.5563 269.6531,404.7531 Q269.4562,404.95 269.15,404.95 Q268.8766,404.95 268.7016,404.8297 Q268.5266,404.7094 268.45,404.3922 Q268.4172,404.1734 268.2969,404.0531 Q268.0781,403.8234 267.6844,403.6922 Q267.2906,403.55 266.8969,403.55 Q266.4047,403.55 265.9891,403.7469 Q265.5844,403.9437 265.2672,404.3812 Q264.95,404.8187 264.95,405.4203 L264.95,406.0656 Q264.95,406.7875 265.5406,407.2687 Q266.1312,407.75 267.1813,407.75 Q267.8047,407.75 268.2422,407.6078 Q268.4938,407.5313 268.7781,407.2797 Q268.9641,407.1375 269.0625,407.0938 Q269.1609,407.05 269.2813,407.05 Q269.5109,407.05 269.675,407.2359 Q269.85,407.4109 269.85,407.6625 Q269.85,407.9031 269.6094,408.1875 Q269.2594,408.6031 268.7016,408.8328 Q267.9688,409.15 267.0719,409.15 Q266.0219,409.15 265.1797,408.7344 Q264.5016,408.4063 264.0203,407.6953 Q263.55,406.9844 263.55,406.1422 L263.55,405.3766 Q263.55,404.5016 263.9656,403.7359 Q264.3922,402.9703 265.125,402.5656 Q265.8688,402.15 266.7,402.15 Q267.2031,402.15 267.6406,402.325 Q268.0781,402.5 268.45,402.85 Z " fill="#000000"/><text fill="#000000" font-family="sans-serif" font-size="8.4" lengthAdjust="spacing" textLength="105.7" x="276.85" y="408.7371">ProposedCombinationView</text><line style="stroke:#A80036;stroke-width:1.0499999999999998;" x1="257.25" x2="383.95" y1="416.5" y2="416.5"/><line style="stroke:#A80036;stroke-width:1.0499999999999998;" x1="257.25" x2="383.95" y1="422.1" y2="422.1"/><!--MD5=[c55a3bd85bdbe43241961c75a4f4f8c6]
class views.graphic.GraphicView--><rect codeLine="34" fill="#FEFECE" filter="url(#f1mw3fp5ayjhot)" height="33.6" id="views.graphic.GraphicView" style="stroke:#A80036;stroke-width:1.0499999999999998;" width="70.7" x="424.55" y="242.9"/><ellipse cx="435.05" cy="254.1" fill="#ADD1B2" rx="7.7" ry="7.7" style="stroke:#A80036;stroke-width:0.7;"/><path d="M436.45,251.65 Q436.5922,251.3 436.7562,251.125 Q436.9203,250.95 437.1063,250.95 Q437.4344,250.95 437.6422,251.1469 Q437.85,251.3437 437.85,251.8031 L437.85,252.8969 Q437.85,253.3563 437.6531,253.5531 Q437.4562,253.75 437.15,253.75 Q436.8766,253.75 436.7016,253.6297 Q436.5266,253.5094 436.45,253.1922 Q436.4172,252.9734 436.2969,252.8531 Q436.0781,252.6234 435.6844,252.4922 Q435.2906,252.35 434.8969,252.35 Q434.4047,252.35 433.9891,252.5469 Q433.5844,252.7437 433.2672,253.1812 Q432.95,253.6187 432.95,254.2203 L432.95,254.8656 Q432.95,255.5875 433.5406,256.0687 Q434.1312,256.55 435.1813,256.55 Q435.8047,256.55 436.2422,256.4078 Q436.4938,256.3313 436.7781,256.0797 Q436.9641,255.9375 437.0625,255.8937 Q437.1609,255.85 437.2813,255.85 Q437.5109,255.85 437.675,256.0359 Q437.85,256.2109 437.85,256.4625 Q437.85,256.7031 437.6094,256.9875 Q437.2594,257.4031 436.7016,257.6328 Q435.9688,257.95 435.0719,257.95 Q434.0219,257.95 433.1797,257.5344 Q432.5016,257.2063 432.0203,256.4953 Q431.55,255.7844 431.55,254.9422 L431.55,254.1766 Q431.55,253.3016 431.9656,252.5359 Q432.3922,251.7703 433.125,251.3656 Q433.8688,250.95 434.7,250.95 Q435.2031,250.95 435.6406,251.125 Q436.0781,251.3 436.45,251.65 Z " fill="#000000"/><text fill="#000000" font-family="sans-serif" font-size="8.4" lengthAdjust="spacing" textLength="48.3" x="444.85" y="257.5371">GraphicView</text><line style="stroke:#A80036;stroke-width:1.0499999999999998;" x1="425.25" x2="494.55" y1="265.3" y2="265.3"/><line style="stroke:#A80036;stroke-width:1.0499999999999998;" x1="425.25" x2="494.55" y1="270.9" y2="270.9"/><!--MD5=[7283a9eed84464550b6d5ebf39c68b05]
class Mastermind--><rect codeLine="1" fill="#FEFECE" filter="url(#f1mw3fp5ayjhot)" height="33.6" id="Mastermind" style="stroke:#A80036;stroke-width:1.0499999999999998;" width="67.2" x="764.4" y="4.9"/><ellipse cx="774.9" cy="16.1" fill="#A9DCDF" rx="7.7" ry="7.7" style="stroke:#A80036;stroke-width:0.7;"/><path d="M776.125,17.15 L773.8172,17.15 L773.5109,17.85 L773.5109,17.85 L773.8391,17.85 L774.2,18.2875 L774.2,18.55 L774.2,18.8125 L773.8391,19.25 L773.5109,19.25 L772.1875,19.25 L771.7609,19.25 L771.4,18.8125 L771.4,18.55 L771.4,18.2875 L771.7609,17.85 L772.1875,17.85 L773.8063,13.65 L773.1937,13.65 L772.4609,13.65 L772.1,13.2125 L772.1,12.95 L772.1,12.6875 L772.4609,12.25 L773.1937,12.25 L775.7641,12.25 L777.6453,17.85 L778.0391,17.85 L778.0391,17.85 L778.4,18.2875 L778.4,18.55 L778.4,18.8125 L778.0391,19.25 L777.6453,19.25 L776.3219,19.25 L775.9609,19.25 L775.6,18.8125 L775.6,18.55 L775.6,18.2875 L775.9609,17.85 L776.3219,17.85 L776.3219,17.85 L776.125,17.15 Z M775.7422,15.75 L774.9,13.2453 L774.1781,15.75 L775.7422,15.75 Z " fill="#000000"/><text fill="#000000" font-family="sans-serif" font-size="8.4" font-style="italic" lengthAdjust="spacing" textLength="44.8" x="784.7" y="19.5371">Mastermind</text><line style="stroke:#A80036;stroke-width:1.0499999999999998;" x1="765.1" x2="830.9" y1="27.3" y2="27.3"/><line style="stroke:#A80036;stroke-width:1.0499999999999998;" x1="765.1" x2="830.9" y1="32.9" y2="32.9"/><!--MD5=[b42ceb2c5584a967df5f7acfe803d0f5]
class ConsoleMastermind--><rect codeLine="2" fill="#FEFECE" filter="url(#f1mw3fp5ayjhot)" height="33.6" id="ConsoleMastermind" style="stroke:#A80036;stroke-width:1.0499999999999998;" width="100.8" x="552.3" y="80.5"/><ellipse cx="562.8" cy="91.7" fill="#ADD1B2" rx="7.7" ry="7.7" style="stroke:#A80036;stroke-width:0.7;"/><path d="M564.2,89.25 Q564.3422,88.9 564.5062,88.725 Q564.6703,88.55 564.8562,88.55 Q565.1844,88.55 565.3922,88.7469 Q565.6,88.9438 565.6,89.4031 L565.6,90.4969 Q565.6,90.9563 565.4031,91.1531 Q565.2063,91.35 564.9,91.35 Q564.6266,91.35 564.4516,91.2297 Q564.2766,91.1094 564.2,90.7922 Q564.1672,90.5734 564.0469,90.4531 Q563.8281,90.2234 563.4344,90.0922 Q563.0406,89.95 562.6469,89.95 Q562.1547,89.95 561.7391,90.1469 Q561.3344,90.3438 561.0172,90.7813 Q560.7,91.2188 560.7,91.8203 L560.7,92.4656 Q560.7,93.1875 561.2906,93.6687 Q561.8812,94.15 562.9313,94.15 Q563.5547,94.15 563.9922,94.0078 Q564.2438,93.9312 564.5281,93.6797 Q564.7141,93.5375 564.8125,93.4937 Q564.9109,93.45 565.0313,93.45 Q565.2609,93.45 565.425,93.6359 Q565.6,93.8109 565.6,94.0625 Q565.6,94.3031 565.3594,94.5875 Q565.0094,95.0031 564.4516,95.2328 Q563.7188,95.55 562.8219,95.55 Q561.7719,95.55 560.9297,95.1344 Q560.2516,94.8062 559.7703,94.0953 Q559.3,93.3844 559.3,92.5422 L559.3,91.7766 Q559.3,90.9016 559.7156,90.1359 Q560.1422,89.3703 560.875,88.9656 Q561.6188,88.55 562.45,88.55 Q562.9531,88.55 563.3906,88.725 Q563.8281,88.9 564.2,89.25 Z " fill="#000000"/><text fill="#000000" font-family="sans-serif" font-size="8.4" lengthAdjust="spacing" textLength="78.4" x="572.6" y="95.1371">ConsoleMastermind</text><line style="stroke:#A80036;stroke-width:1.0499999999999998;" x1="553" x2="652.4" y1="102.9" y2="102.9"/><line style="stroke:#A80036;stroke-width:1.0499999999999998;" x1="553" x2="652.4" y1="108.5" y2="108.5"/><!--MD5=[3dbb96204e83d62728e291fc10d13f13]
class GraphicMastermind--><rect codeLine="3" fill="#FEFECE" filter="url(#f1mw3fp5ayjhot)" height="33.6" id="GraphicMastermind" style="stroke:#A80036;stroke-width:1.0499999999999998;" width="98" x="749" y="80.5"/><ellipse cx="759.5" cy="91.7" fill="#ADD1B2" rx="7.7" ry="7.7" style="stroke:#A80036;stroke-width:0.7;"/><path d="M760.9,89.25 Q761.0422,88.9 761.2063,88.725 Q761.3703,88.55 761.5563,88.55 Q761.8844,88.55 762.0922,88.7469 Q762.3,88.9438 762.3,89.4031 L762.3,90.4969 Q762.3,90.9563 762.1031,91.1531 Q761.9063,91.35 761.6,91.35 Q761.3266,91.35 761.1516,91.2297 Q760.9766,91.1094 760.9,90.7922 Q760.8672,90.5734 760.7469,90.4531 Q760.5281,90.2234 760.1344,90.0922 Q759.7406,89.95 759.3469,89.95 Q758.8547,89.95 758.4391,90.1469 Q758.0344,90.3438 757.7172,90.7813 Q757.4,91.2188 757.4,91.8203 L757.4,92.4656 Q757.4,93.1875 757.9906,93.6687 Q758.5813,94.15 759.6312,94.15 Q760.2547,94.15 760.6922,94.0078 Q760.9437,93.9312 761.2281,93.6797 Q761.4141,93.5375 761.5125,93.4937 Q761.6109,93.45 761.7312,93.45 Q761.9609,93.45 762.125,93.6359 Q762.3,93.8109 762.3,94.0625 Q762.3,94.3031 762.0594,94.5875 Q761.7094,95.0031 761.1516,95.2328 Q760.4187,95.55 759.5219,95.55 Q758.4719,95.55 757.6297,95.1344 Q756.9516,94.8062 756.4703,94.0953 Q756,93.3844 756,92.5422 L756,91.7766 Q756,90.9016 756.4156,90.1359 Q756.8422,89.3703 757.575,88.9656 Q758.3187,88.55 759.15,88.55 Q759.6531,88.55 760.0906,88.725 Q760.5281,88.9 760.9,89.25 Z " fill="#000000"/><text fill="#000000" font-family="sans-serif" font-size="8.4" lengthAdjust="spacing" textLength="75.6" x="769.3" y="95.1371">GraphicMastermind</text><line style="stroke:#A80036;stroke-width:1.0499999999999998;" x1="749.7" x2="846.3" y1="102.9" y2="102.9"/><line style="stroke:#A80036;stroke-width:1.0499999999999998;" x1="749.7" x2="846.3" y1="108.5" y2="108.5"/><!--MD5=[7afbafdb125ce8bbfb96ccbb9aad70ab]
link Mastermind to models.Logic--><path codeLine="5" d="M839.5831,40.7989 C839.5831,40.7989 853.356,46.921 859.6,49.7 C884.821,60.921 913.423,73.703 934.395,83.083 " fill="none" id="Mastermind-models.Logic" style="stroke:#A80036;stroke-width:0.7;"/><polygon fill="#A80036" points="942.893,86.884,938.2869,81.7543,939.6985,85.454,935.9988,86.8655,942.893,86.884" style="stroke:#A80036;stroke-width:0.7;"/><line style="stroke:#A80036;stroke-width:0.7;" x1="939.6985" x2="934.584" y1="85.454" y2="83.1635"/><polygon fill="#A80036" points="831.901,37.401,834.6094,41.6606,839.5831,40.7989,836.8747,36.5392,831.901,37.401" style="stroke:#A80036;stroke-width:0.7;"/><!--MD5=[00344b25554080b223ed48afc3efe932]
reverse link Mastermind to ConsoleMastermind--><path codeLine="6" d="M751.072,40.229 C718.816,52.486 676.34,68.621 645.106,80.486 " fill="none" id="Mastermind-backto-ConsoleMastermind" style="stroke:#A80036;stroke-width:0.7;"/><polygon fill="none" points="749.378,35.63,764.204,35.238,752.857,44.793,749.378,35.63" style="stroke:#A80036;stroke-width:0.7;"/><!--MD5=[9e99639dc9984f28887e4b96848d5fa3]
reverse link Mastermind to GraphicMastermind--><path codeLine="7" d="M798,52.514 C798,62.006 798,72.128 798,80.276 " fill="none" id="Mastermind-backto-GraphicMastermind" style="stroke:#A80036;stroke-width:0.7;"/><polygon fill="none" points="793.1,52.5,798,38.5,802.9,52.5,793.1,52.5" style="stroke:#A80036;stroke-width:0.7;"/><!--MD5=[6fb66bd5674986e9f90d7ac44c0441cb]
link ConsoleMastermind to views.View--><path codeLine="8" d="M544.3182,115.8931 C544.3182,115.8931 529.886,122.003 523.6,125.3 C510.461,132.202 497.063,141.631 485.968,150.227 " fill="none" id="ConsoleMastermind-views.View" style="stroke:#A80036;stroke-width:0.7;"/><polygon fill="#A80036" points="478.688,156.002,485.3632,154.278,481.4293,153.8259,481.8814,149.892,478.688,156.002" style="stroke:#A80036;stroke-width:0.7;"/><line style="stroke:#A80036;stroke-width:0.7;" x1="481.4293" x2="485.814" y1="153.8259" y2="150.3495"/><polygon fill="#A80036" points="552.16,112.882,547.2354,111.7736,544.3182,115.8931,549.2428,117.0015,552.16,112.882" style="stroke:#A80036;stroke-width:0.7;"/><!--MD5=[5d8ba35bff6dceea699964200a179cf2]
link models.Logic to controllers.Controller--><path codeLine="9" d="M942.816,106.953 C911.673,119.749 854.147,143.381 817.544,158.417 " fill="none" id="models.Logic-to-controllers.Controller" style="stroke:#A80036;stroke-width:0.7;"/><polygon fill="#A80036" points="814.289,159.754,821.1804,159.9519,817.5268,158.4249,819.0538,154.7714,814.289,159.754" style="stroke:#A80036;stroke-width:0.7;"/><!--MD5=[c1be248eb4343df0434ba6b8152624c0]
reverse link views.View to views.console.ConsoleView--><path codeLine="10" d="M426.573,187.915 C390.985,203.203 334.754,227.36 297.892,243.194 " fill="none" id="views.View-backto-views.console.ConsoleView" style="stroke:#A80036;stroke-width:0.7;"/><polygon fill="none" points="424.76,183.365,439.558,182.336,428.631,192.367,424.76,183.365" style="stroke:#A80036;stroke-width:0.7;"/><!--MD5=[661e0842df5a804e2e7e7e7a174d3192]
reverse link views.View to views.graphic.GraphicView--><path codeLine="11" d="M459.9,203.889 C459.9,217.007 459.9,231.826 459.9,242.795 " fill="none" id="views.View-backto-views.graphic.GraphicView" style="stroke:#A80036;stroke-width:0.7;"/><polygon fill="none" points="455,203.861,459.9,189.861,464.8,203.861,455,203.861" style="stroke:#A80036;stroke-width:0.7;"/><!--MD5=[8ed129eddd3efcd5d73b597830113c0a]
link views.console.ConsoleView to views.console.GameView--><path codeLine="13" d="M247.4381,283.7474 C247.4381,283.7474 236.719,302.092 231.868,310.38 " fill="none" id="views.console.ConsoleView-views.console.GameView" style="stroke:#A80036;stroke-width:0.7;"/><polygon fill="#A80036" points="227.248,318.276,232.8451,314.2508,229.0147,315.2546,228.0109,311.4241,227.248,318.276" style="stroke:#A80036;stroke-width:0.7;"/><line style="stroke:#A80036;stroke-width:0.7;" x1="229.0147" x2="231.8435" y1="315.2546" y2="310.4185"/><polygon fill="#A80036" points="251.685,276.5,247.1458,278.7081,247.4381,283.7474,251.9774,281.5393,251.685,276.5" style="stroke:#A80036;stroke-width:0.7;"/><!--MD5=[6e1613315990f2ca1f3a506a063b27d9]
link views.console.GameView to views.console.AttemptView--><path codeLine="14" d="M185.451,350.924 C159.446,362.964 122.815,379.918 95.389,392.616 " fill="none" id="views.console.GameView-to-views.console.AttemptView" style="stroke:#A80036;stroke-width:0.7;"/><polygon fill="#A80036" points="92.092,394.142,98.9854,394.0401,95.269,392.6734,96.6357,388.9569,92.092,394.142" style="stroke:#A80036;stroke-width:0.7;"/><!--MD5=[dd513d09b716009f5ca464e3278bbb9d]
link views.console.GameView to views.console.SecretCombinationView--><path codeLine="15" d="M208.285,352.1 C201.677,363.398 192.801,378.574 185.78,390.579 " fill="none" id="views.console.GameView-to-views.console.SecretCombinationView" style="stroke:#A80036;stroke-width:0.7;"/><polygon fill="#A80036" points="183.848,393.876,189.4434,389.8485,185.6134,390.8539,184.608,387.0238,183.848,393.876" style="stroke:#A80036;stroke-width:0.7;"/><!--MD5=[040893d00fbc899932dded4ee400621a]
link views.console.GameView to views.console.ProposedCombinationView--><path codeLine="16" d="M240.03,352.1 C256.291,363.825 278.334,379.722 295.253,391.923 " fill="none" id="views.console.GameView-to-views.console.ProposedCombinationView" style="stroke:#A80036;stroke-width:0.7;"/><polygon fill="#A80036" points="298.137,394.002,294.6676,388.0444,295.2991,391.9535,291.39,392.585,298.137,394.002" style="stroke:#A80036;stroke-width:0.7;"/><!--MD5=[6c9ab08b12a41e31cbd5f73fef1aa392]
link controllers.Controller to controllers.StartController--><path codeLine="17" d="M753.704,176.379 C720.489,180.432 666.421,190.05 625.1,212.1 C611.891,219.149 599.466,230.412 590.17,240.128 " fill="none" id="controllers.Controller-to-controllers.StartController" style="stroke:#A80036;stroke-width:0.7;stroke-dasharray:7.0,7.0;"/><polygon fill="#A80036" points="587.636,242.83,593.9872,240.1481,590.0295,240.2763,589.9013,236.3186,587.636,242.83" style="stroke:#A80036;stroke-width:0.7;"/><!--MD5=[de02ae4f68f997fa97f484ce855199ea]
link controllers.Controller to controllers.ProposedCombinationController--><path codeLine="18" d="M770.133,189.861 C757.939,204.169 740.18,225.001 727.349,240.058 " fill="none" id="controllers.Controller-to-controllers.ProposedCombinationController" style="stroke:#A80036;stroke-width:0.7;stroke-dasharray:7.0,7.0;"/><polygon fill="#A80036" points="725.011,242.795,731.2249,239.8089,727.2781,240.1285,726.9585,236.1816,725.011,242.795" style="stroke:#A80036;stroke-width:0.7;"/><!--MD5=[5aa73dd6a52ab1c59f90cc0330839e8f]
link controllers.Controller to controllers.ResumeController--><path codeLine="19" d="M797.867,189.861 C810.061,204.169 827.82,225.001 840.651,240.058 " fill="none" id="controllers.Controller-to-controllers.ResumeController" style="stroke:#A80036;stroke-width:0.7;stroke-dasharray:7.0,7.0;"/><polygon fill="#A80036" points="842.989,242.795,841.0415,236.1816,840.7219,240.1285,836.7751,239.8089,842.989,242.795" style="stroke:#A80036;stroke-width:0.7;"/><!--MD5=[4a984a6942312f074bca993940bac6e7]
link models.Attempt to models.Color--><!--MD5=[cbba4dd482ccfc0e08c9e195ba132fa3]
link models.Color to models.Combination--><!--MD5=[0ba3de9b9f8b6b295f5a9393201e24a2]
link models.Attempt to models.Game--><!--MD5=[ad97d5bf35c8887fee9806a13e3be50a]
link models.Game to models.Message--><!--MD5=[092fbd0142fb861c3e9f2b335fc06525]
link models.Message to models.ProposedCombination--><!--MD5=[edc3d0228750d410110ee65407e59f37]
link models.Game to models.SecretCombination--><!--MD5=[93bf92a93f9e3ea32c5e879c73b7009f]
link models.SecretCombination to models.State--><!--MD5=[24e914e21fcaad857508f61d3d0ffd06]
link models.State to models.StateValue--><!--MD5=[b4bcd880efb55fc891d1da144559e73b]
@startuml
abstract class Mastermind
class ConsoleMastermind
class GraphicMastermind

Mastermind *- -> models.Logic
ConsoleMastermind -up-|> Mastermind
GraphicMastermind -up-|> Mastermind
ConsoleMastermind *- -> views.View
models.Logic - -> controllers.Controller
views.console.ConsoleView -up-|> views.View
views.graphic.GraphicView -up-|> views.View

views.console.ConsoleView *- -> views.console.GameView
views.console.GameView - -> views.console.AttemptView
views.console.GameView - -> views.console.SecretCombinationView
views.console.GameView - -> views.console.ProposedCombinationView
controllers.Controller ..> controllers.StartController
controllers.Controller ..> controllers.ProposedCombinationController
controllers.Controller ..> controllers.ResumeController
namespace models{
class Attempt{}
class Color{}
class Combination{}
class Game{}
class Message{}
class ProposedCombination{}
class SecretCombination{}
class State{}
class StateValue{}
}
namespace views{
namespace console{}
namespace graphic{
class GraphicView{}
}
}

@enduml

PlantUML version 1.2021.00(Sun Jan 10 11:25:05 CET 2021)
(GPL source distribution)
Java Runtime: OpenJDK Runtime Environment
JVM: OpenJDK 64-Bit Server VM
Default Encoding: Cp1252
Language: es
Country: ES
--></g></svg>